<mxfile host="app.diagrams.net" agent="Mozilla/5.0 (Windows NT 10.0; Win64; x64) AppleWebKit/537.36 (KHTML, like Gecko) Chrome/127.0.0.0 Safari/537.36" version="24.7.7">
  <diagram id="C5RBs43oDa-KdzZeNtuy" name="Page-1">
    <mxGraphModel grid="1" page="1" gridSize="10" guides="1" tooltips="1" connect="1" arrows="1" fold="1" pageScale="1" pageWidth="827" pageHeight="1169" math="0" shadow="0">
      <root>
        <mxCell id="WIyWlLk6GJQsqaUBKTNV-0" />
        <mxCell id="WIyWlLk6GJQsqaUBKTNV-1" parent="WIyWlLk6GJQsqaUBKTNV-0" />
        <mxCell id="nx-EahQchJ4UEFYaOS1y-1" value="&lt;font style=&quot;font-size: 14px;&quot;&gt;Fim&lt;/font&gt;" style="strokeWidth=2;html=1;shape=mxgraph.flowchart.start_2;whiteSpace=wrap;fillColor=#fad9d5;strokeColor=#ae4132;" vertex="1" parent="WIyWlLk6GJQsqaUBKTNV-1">
          <mxGeometry x="990" y="325" width="50" height="50" as="geometry" />
        </mxCell>
        <mxCell id="nx-EahQchJ4UEFYaOS1y-2" value="&lt;font style=&quot;font-size: 14px;&quot;&gt;Inicio&lt;/font&gt;" style="strokeWidth=2;html=1;shape=mxgraph.flowchart.start_2;whiteSpace=wrap;fillColor=#d5e8d4;strokeColor=#82b366;" vertex="1" parent="WIyWlLk6GJQsqaUBKTNV-1">
          <mxGeometry x="40" y="150" width="60" height="60" as="geometry" />
        </mxCell>
        <mxCell id="nx-EahQchJ4UEFYaOS1y-5" value="" style="edgeStyle=orthogonalEdgeStyle;rounded=0;orthogonalLoop=1;jettySize=auto;html=1;" edge="1" parent="WIyWlLk6GJQsqaUBKTNV-1" source="nx-EahQchJ4UEFYaOS1y-3" target="nx-EahQchJ4UEFYaOS1y-2">
          <mxGeometry relative="1" as="geometry" />
        </mxCell>
        <mxCell id="nx-EahQchJ4UEFYaOS1y-7" value="" style="edgeStyle=orthogonalEdgeStyle;rounded=0;orthogonalLoop=1;jettySize=auto;html=1;" edge="1" parent="WIyWlLk6GJQsqaUBKTNV-1" source="nx-EahQchJ4UEFYaOS1y-3" target="nx-EahQchJ4UEFYaOS1y-6">
          <mxGeometry relative="1" as="geometry" />
        </mxCell>
        <mxCell id="nx-EahQchJ4UEFYaOS1y-3" value="&lt;font style=&quot;font-size: 14px;&quot;&gt;Pessoa&lt;/font&gt;" style="rounded=1;whiteSpace=wrap;html=1;fillColor=#dae8fc;strokeColor=#6c8ebf;" vertex="1" parent="WIyWlLk6GJQsqaUBKTNV-1">
          <mxGeometry x="10" y="310" width="120" height="60" as="geometry" />
        </mxCell>
        <mxCell id="nx-EahQchJ4UEFYaOS1y-9" value="" style="edgeStyle=orthogonalEdgeStyle;rounded=0;orthogonalLoop=1;jettySize=auto;html=1;" edge="1" parent="WIyWlLk6GJQsqaUBKTNV-1" source="nx-EahQchJ4UEFYaOS1y-6" target="nx-EahQchJ4UEFYaOS1y-8">
          <mxGeometry relative="1" as="geometry" />
        </mxCell>
        <mxCell id="nx-EahQchJ4UEFYaOS1y-6" value="&lt;font style=&quot;font-size: 14px;&quot;&gt;Acesso tela Login&lt;/font&gt;" style="rounded=1;whiteSpace=wrap;html=1;fillColor=#dae8fc;strokeColor=#6c8ebf;" vertex="1" parent="WIyWlLk6GJQsqaUBKTNV-1">
          <mxGeometry x="220" y="310" width="120" height="60" as="geometry" />
        </mxCell>
        <mxCell id="nx-EahQchJ4UEFYaOS1y-11" value="" style="edgeStyle=orthogonalEdgeStyle;rounded=0;orthogonalLoop=1;jettySize=auto;html=1;" edge="1" parent="WIyWlLk6GJQsqaUBKTNV-1" source="nx-EahQchJ4UEFYaOS1y-8" target="nx-EahQchJ4UEFYaOS1y-10">
          <mxGeometry relative="1" as="geometry" />
        </mxCell>
        <mxCell id="nx-EahQchJ4UEFYaOS1y-18" value="" style="edgeStyle=orthogonalEdgeStyle;rounded=0;orthogonalLoop=1;jettySize=auto;html=1;" edge="1" parent="WIyWlLk6GJQsqaUBKTNV-1" source="nx-EahQchJ4UEFYaOS1y-8" target="nx-EahQchJ4UEFYaOS1y-17">
          <mxGeometry relative="1" as="geometry" />
        </mxCell>
        <mxCell id="nx-EahQchJ4UEFYaOS1y-8" value="&lt;span style=&quot;font-size: 14px;&quot;&gt;Usuário possui cadastro?&lt;/span&gt;" style="rhombus;whiteSpace=wrap;html=1;rounded=1;fillColor=#f0a30a;strokeColor=#BD7000;fontColor=#000000;" vertex="1" parent="WIyWlLk6GJQsqaUBKTNV-1">
          <mxGeometry x="390" y="280" width="130" height="120" as="geometry" />
        </mxCell>
        <mxCell id="nx-EahQchJ4UEFYaOS1y-13" value="" style="edgeStyle=orthogonalEdgeStyle;rounded=0;orthogonalLoop=1;jettySize=auto;html=1;" edge="1" parent="WIyWlLk6GJQsqaUBKTNV-1" source="nx-EahQchJ4UEFYaOS1y-10" target="nx-EahQchJ4UEFYaOS1y-12">
          <mxGeometry relative="1" as="geometry" />
        </mxCell>
        <mxCell id="nx-EahQchJ4UEFYaOS1y-10" value="&lt;font style=&quot;font-size: 14px;&quot;&gt;Cadastrar usuário&lt;/font&gt;" style="rounded=1;whiteSpace=wrap;html=1;fillColor=#dae8fc;strokeColor=#6c8ebf;" vertex="1" parent="WIyWlLk6GJQsqaUBKTNV-1">
          <mxGeometry x="615" y="310" width="120" height="60" as="geometry" />
        </mxCell>
        <mxCell id="nx-EahQchJ4UEFYaOS1y-27" style="edgeStyle=orthogonalEdgeStyle;rounded=0;orthogonalLoop=1;jettySize=auto;html=1;exitX=0;exitY=0.5;exitDx=0;exitDy=0;entryX=0.5;entryY=1;entryDx=0;entryDy=0;" edge="1" parent="WIyWlLk6GJQsqaUBKTNV-1" source="nx-EahQchJ4UEFYaOS1y-12" target="nx-EahQchJ4UEFYaOS1y-8">
          <mxGeometry relative="1" as="geometry" />
        </mxCell>
        <mxCell id="nx-EahQchJ4UEFYaOS1y-35" style="edgeStyle=orthogonalEdgeStyle;rounded=0;orthogonalLoop=1;jettySize=auto;html=1;exitX=1;exitY=0.5;exitDx=0;exitDy=0;entryX=1;entryY=0.5;entryDx=0;entryDy=0;" edge="1" parent="WIyWlLk6GJQsqaUBKTNV-1" source="nx-EahQchJ4UEFYaOS1y-12" target="nx-EahQchJ4UEFYaOS1y-10">
          <mxGeometry relative="1" as="geometry" />
        </mxCell>
        <mxCell id="nx-EahQchJ4UEFYaOS1y-12" value="&lt;font style=&quot;font-size: 14px;&quot;&gt;Usuário&amp;nbsp; &amp;nbsp;cadastrado com sucesso?&lt;/font&gt;" style="rhombus;whiteSpace=wrap;html=1;rounded=1;fillColor=#f0a30a;fontColor=#000000;strokeColor=#BD7000;" vertex="1" parent="WIyWlLk6GJQsqaUBKTNV-1">
          <mxGeometry x="610" y="455" width="130" height="130" as="geometry" />
        </mxCell>
        <mxCell id="nx-EahQchJ4UEFYaOS1y-20" value="" style="edgeStyle=orthogonalEdgeStyle;rounded=0;orthogonalLoop=1;jettySize=auto;html=1;" edge="1" parent="WIyWlLk6GJQsqaUBKTNV-1" source="nx-EahQchJ4UEFYaOS1y-17" target="nx-EahQchJ4UEFYaOS1y-19">
          <mxGeometry relative="1" as="geometry" />
        </mxCell>
        <mxCell id="nx-EahQchJ4UEFYaOS1y-17" value="&lt;font style=&quot;font-size: 14px;&quot;&gt;Inserir&amp;nbsp; Login e senha&lt;/font&gt;" style="rounded=1;whiteSpace=wrap;html=1;fillColor=#dae8fc;strokeColor=#6c8ebf;" vertex="1" parent="WIyWlLk6GJQsqaUBKTNV-1">
          <mxGeometry x="394" y="150" width="120" height="60" as="geometry" />
        </mxCell>
        <mxCell id="nx-EahQchJ4UEFYaOS1y-26" style="edgeStyle=orthogonalEdgeStyle;rounded=0;orthogonalLoop=1;jettySize=auto;html=1;exitX=0.5;exitY=0;exitDx=0;exitDy=0;entryX=0.5;entryY=0;entryDx=0;entryDy=0;" edge="1" parent="WIyWlLk6GJQsqaUBKTNV-1" source="nx-EahQchJ4UEFYaOS1y-19" target="nx-EahQchJ4UEFYaOS1y-17">
          <mxGeometry relative="1" as="geometry" />
        </mxCell>
        <mxCell id="nx-EahQchJ4UEFYaOS1y-28" style="edgeStyle=orthogonalEdgeStyle;rounded=0;orthogonalLoop=1;jettySize=auto;html=1;exitX=0.5;exitY=1;exitDx=0;exitDy=0;entryX=0.5;entryY=0;entryDx=0;entryDy=0;" edge="1" parent="WIyWlLk6GJQsqaUBKTNV-1" source="nx-EahQchJ4UEFYaOS1y-19" target="nx-EahQchJ4UEFYaOS1y-21">
          <mxGeometry relative="1" as="geometry" />
        </mxCell>
        <mxCell id="nx-EahQchJ4UEFYaOS1y-19" value="&lt;font style=&quot;font-size: 14px;&quot;&gt;Login e Senha Validados?&lt;/font&gt;" style="rhombus;whiteSpace=wrap;html=1;rounded=1;fillColor=#f0a30a;fontColor=#000000;strokeColor=#BD7000;" vertex="1" parent="WIyWlLk6GJQsqaUBKTNV-1">
          <mxGeometry x="620" y="120" width="130" height="120" as="geometry" />
        </mxCell>
        <mxCell id="nx-EahQchJ4UEFYaOS1y-30" style="edgeStyle=orthogonalEdgeStyle;rounded=0;orthogonalLoop=1;jettySize=auto;html=1;exitX=1;exitY=0.5;exitDx=0;exitDy=0;" edge="1" parent="WIyWlLk6GJQsqaUBKTNV-1" source="nx-EahQchJ4UEFYaOS1y-21">
          <mxGeometry relative="1" as="geometry">
            <mxPoint x="990" y="349.5882352941177" as="targetPoint" />
          </mxGeometry>
        </mxCell>
        <mxCell id="nx-EahQchJ4UEFYaOS1y-21" value="&lt;font style=&quot;font-size: 14px;&quot;&gt;Tela Home do Sistema&lt;/font&gt;" style="rounded=1;whiteSpace=wrap;html=1;fillColor=#dae8fc;strokeColor=#6c8ebf;" vertex="1" parent="WIyWlLk6GJQsqaUBKTNV-1">
          <mxGeometry x="790" y="320" width="120" height="60" as="geometry" />
        </mxCell>
        <mxCell id="nx-EahQchJ4UEFYaOS1y-31" value="&lt;font style=&quot;font-size: 14px;&quot;&gt;nâo&lt;/font&gt;" style="text;html=1;align=center;verticalAlign=middle;resizable=0;points=[];autosize=1;strokeColor=none;fillColor=none;" vertex="1" parent="WIyWlLk6GJQsqaUBKTNV-1">
          <mxGeometry x="535" y="320" width="50" height="30" as="geometry" />
        </mxCell>
        <mxCell id="nx-EahQchJ4UEFYaOS1y-32" value="&lt;font style=&quot;font-size: 14px;&quot;&gt;sim&lt;/font&gt;" style="text;html=1;align=center;verticalAlign=middle;resizable=0;points=[];autosize=1;strokeColor=none;fillColor=none;" vertex="1" parent="WIyWlLk6GJQsqaUBKTNV-1">
          <mxGeometry x="514" y="490" width="50" height="30" as="geometry" />
        </mxCell>
        <mxCell id="nx-EahQchJ4UEFYaOS1y-33" value="&lt;font style=&quot;font-size: 14px;&quot;&gt;não&lt;/font&gt;" style="text;html=1;align=center;verticalAlign=middle;resizable=0;points=[];autosize=1;strokeColor=none;fillColor=none;" vertex="1" parent="WIyWlLk6GJQsqaUBKTNV-1">
          <mxGeometry x="720" y="425" width="50" height="30" as="geometry" />
        </mxCell>
        <mxCell id="nx-EahQchJ4UEFYaOS1y-36" value="&lt;font style=&quot;font-size: 14px;&quot;&gt;Logado&lt;/font&gt;" style="text;html=1;align=center;verticalAlign=middle;resizable=0;points=[];autosize=1;strokeColor=none;fillColor=none;" vertex="1" parent="WIyWlLk6GJQsqaUBKTNV-1">
          <mxGeometry x="735" y="248" width="70" height="30" as="geometry" />
        </mxCell>
        <mxCell id="nx-EahQchJ4UEFYaOS1y-37" value="&lt;font style=&quot;font-size: 14px;&quot;&gt;Não Logado&lt;/font&gt;" style="text;html=1;align=center;verticalAlign=middle;resizable=0;points=[];autosize=1;strokeColor=none;fillColor=none;" vertex="1" parent="WIyWlLk6GJQsqaUBKTNV-1">
          <mxGeometry x="510" y="68" width="100" height="30" as="geometry" />
        </mxCell>
        <mxCell id="nx-EahQchJ4UEFYaOS1y-38" value="&lt;font style=&quot;font-size: 14px;&quot;&gt;Sim&lt;/font&gt;" style="text;html=1;align=center;verticalAlign=middle;resizable=0;points=[];autosize=1;strokeColor=none;fillColor=none;" vertex="1" parent="WIyWlLk6GJQsqaUBKTNV-1">
          <mxGeometry x="415" y="228" width="50" height="30" as="geometry" />
        </mxCell>
      </root>
    </mxGraphModel>
  </diagram>
</mxfile>
